<svg width="314" height="76" viewBox="0 0 314 76" fill="none" xmlns="http://www.w3.org/2000/svg">
<path d="M61.6326 25.748C64.0252 25.6851 66.3551 25.9372 68.6218 26.5039C71.5181 27.0076 73.8481 28.0153 75.6111 29.5264C77.3739 31.0375 78.6964 32.8633 79.5779 35.0039C80.5224 37.1447 81.0882 39.5063 81.2771 42.0879C81.466 44.6694 81.466 47.2823 81.2771 49.9268C80.8362 50.0527 79.9863 50.1788 78.7273 50.3047C77.531 50.4306 76.0826 50.5567 74.3826 50.6826C72.7455 50.8085 70.9824 50.9029 69.0935 50.9658C67.2047 51.0288 65.3789 51.0605 63.616 51.0605C61.916 51.0605 60.3732 51.0288 58.988 50.9658C57.6029 50.9029 56.5952 50.8085 55.9656 50.6826V52.3828C56.0285 54.2716 56.0911 55.8145 56.1541 57.0107C56.28 58.207 56.69 59.3716 57.3826 60.5049C58.1381 61.953 59.2083 63.0232 60.5935 63.7158C61.9787 64.4084 63.3328 64.6288 64.655 64.377C65.9771 64.125 67.0793 63.3695 67.9607 62.1104C68.905 60.7881 69.3141 58.8362 69.1882 56.2549C69.8178 56.3178 70.6678 56.3496 71.738 56.3496C72.8084 56.2866 73.9104 56.2231 75.0437 56.1602C76.24 56.0972 77.3737 56.0972 78.4441 56.1602C79.5145 56.1602 80.396 56.2545 81.0886 56.4434C80.9627 58.0805 80.8366 59.6866 80.7107 61.2607C80.5848 62.8346 80.4279 64.3142 80.239 65.6992C80.0501 67.0215 79.798 68.1869 79.4832 69.1943C79.2313 70.1388 78.8848 70.8 78.4441 71.1777C77.3738 72.6887 75.9886 73.759 74.2888 74.3887C72.5888 75.0183 70.7305 75.3965 68.7156 75.5225C66.7008 75.6484 64.6229 75.6484 62.4822 75.5225C60.4045 75.3965 58.4843 75.333 56.7214 75.333C54.9584 75.0811 53.3205 74.5143 51.8093 73.6328C50.1095 72.4365 48.6926 70.8937 47.5593 69.0049C46.4262 67.0532 45.5136 64.9441 44.821 62.6777C44.1284 60.3481 43.6559 57.892 43.4041 55.3105C43.1522 52.729 43.0887 50.147 43.2146 47.5654C43.4035 45.2358 43.5931 43.0001 43.782 40.8594C44.0339 38.6558 44.5372 36.5152 45.2927 34.4375C46.1113 32.6115 47.371 31.0689 49.071 29.8096C50.771 28.4874 52.6912 27.5115 54.8318 26.8818C56.9726 26.1892 59.2399 25.811 61.6326 25.748ZM220.829 25.748C223.222 25.6851 225.551 25.9372 227.818 26.5039C230.714 27.0076 233.044 28.0152 234.807 29.5264C236.57 31.0375 237.893 32.8632 238.774 35.0039C239.719 37.1447 240.285 39.5063 240.474 42.0879C240.663 44.6693 240.663 47.2823 240.474 49.9268C240.034 50.0527 239.183 50.1788 237.924 50.3047C236.727 50.4306 235.279 50.5567 233.579 50.6826C231.942 50.8085 230.179 50.9029 228.29 50.9658C226.401 51.0288 224.575 51.0605 222.812 51.0605C221.112 51.0605 219.57 51.0288 218.184 50.9658C216.799 50.9029 215.792 50.8085 215.162 50.6826V52.3828C215.225 54.2716 215.288 55.8145 215.351 57.0107C215.477 58.2069 215.886 59.3716 216.579 60.5049C217.334 61.953 218.405 63.0232 219.79 63.7158C221.175 64.4084 222.529 64.6288 223.851 64.377C225.174 64.1251 226.276 63.3696 227.157 62.1104C228.101 60.7881 228.51 58.8363 228.385 56.2549C229.014 56.3178 229.864 56.3496 230.934 56.3496C232.005 56.2867 233.107 56.2231 234.24 56.1602C235.436 56.0972 236.57 56.0972 237.64 56.1602C238.711 56.1602 239.592 56.2545 240.285 56.4434C240.159 58.0805 240.033 59.6866 239.907 61.2607C239.781 62.8346 239.624 64.3142 239.435 65.6992C239.246 67.0215 238.994 68.1869 238.679 69.1943C238.428 70.1387 238.081 70.8 237.64 71.1777C236.57 72.6887 235.185 73.759 233.485 74.3887C231.785 75.0183 229.928 75.3965 227.913 75.5225C225.898 75.6484 223.819 75.6484 221.678 75.5225C219.601 75.3966 217.681 75.333 215.918 75.333C214.155 75.0811 212.518 74.5143 211.007 73.6328C209.307 72.4365 207.89 70.8938 206.757 69.0049C205.623 67.0531 204.71 64.9443 204.017 62.6777C203.325 60.3481 202.852 57.8921 202.6 55.3105C202.348 52.729 202.286 50.147 202.412 47.5654C202.601 45.2358 202.789 43.0001 202.978 40.8594C203.23 38.6558 203.734 36.5151 204.489 34.4375C205.308 32.6115 206.567 31.0689 208.267 29.8096C209.967 28.4873 211.888 27.5115 214.029 26.8818C216.17 26.1893 218.436 25.811 220.829 25.748ZM175.474 5.62988C176.545 5.62988 177.49 5.6934 178.308 5.81934V26.5029C178.308 28.5807 178.245 30.7847 178.119 33.1143C178.056 35.4439 178.119 37.3331 178.308 38.7812C179.379 37.837 180.291 36.7981 181.047 35.665C181.865 34.5317 182.622 33.398 183.314 32.2646C184.007 31.0684 184.699 29.872 185.391 28.6758C186.147 27.4794 186.998 26.3458 187.942 25.2754C188.761 25.5901 189.831 25.7788 191.153 25.8418H195.215C196.663 25.7788 198.079 25.7163 199.465 25.6533C200.85 25.5274 201.984 25.4956 202.865 25.5586C200.535 29.1476 198.016 32.7054 195.308 36.2314C192.601 39.6944 189.925 43.189 187.281 46.7148C190.114 51.3113 192.948 55.8767 195.781 60.4102C198.677 64.8806 201.322 69.5404 203.715 74.3887C202.833 74.3887 201.699 74.4195 200.314 74.4824C198.992 74.6083 197.607 74.7027 196.159 74.7656C194.711 74.8286 193.294 74.8286 191.909 74.7656C190.587 74.7027 189.453 74.5776 188.509 74.3887C187.564 72.8776 186.683 71.3347 185.864 69.7607C185.109 68.1868 184.353 66.6438 183.597 65.1328C182.842 63.5588 182.023 62.016 181.141 60.5049C180.323 58.9938 179.379 57.5453 178.308 56.1602C178.308 57.2935 178.339 58.6159 178.402 60.127C178.465 61.6379 178.497 63.2118 178.497 64.8486C178.497 66.4856 178.465 68.1545 178.402 69.8545C178.339 71.4916 178.182 73.0034 177.93 74.3887C177.238 74.3257 176.356 74.3257 175.286 74.3887C174.279 74.3887 173.208 74.4195 172.075 74.4824C170.942 74.5454 169.776 74.5771 168.58 74.5771C167.447 74.5771 166.408 74.5146 165.464 74.3887C165.023 62.6772 164.928 51.1857 165.179 39.915C165.431 28.6443 165.527 17.2789 165.464 5.81934H168.58C169.776 5.75637 170.942 5.72461 172.075 5.72461C173.271 5.66167 174.404 5.62989 175.474 5.62988ZM8.21655 7.33105C11.05 6.95327 13.8523 6.8272 16.6228 6.95312C19.3931 7.07908 22.0379 7.48808 24.5564 8.18066C27.1378 8.87329 29.4044 10.007 31.3562 11.5811C33.3081 13.0922 34.8508 15.0756 35.9841 17.5312C37.1175 19.9239 37.6843 22.8832 37.6843 26.4092C37.6843 29.0537 37.2118 31.6357 36.2673 34.1543C35.3858 36.6728 34.3157 39.0028 33.0564 41.1436C32.8046 41.5842 32.741 41.9308 32.8669 42.1826C32.9929 42.4344 33.2133 42.7493 33.5281 43.127C34.5355 44.3862 35.4806 45.645 36.3621 46.9043C37.3065 48.1006 38.0937 49.3921 38.7234 50.7773C39.4159 52.0994 39.8876 53.579 40.1394 55.2158C40.3913 56.8529 40.3287 58.6795 39.9509 60.6943C39.4472 63.6535 38.4713 66.0779 37.0232 67.9668C35.638 69.7927 33.9374 71.2094 31.9226 72.2168C29.9079 73.2241 27.6729 73.9162 25.2175 74.2939C22.762 74.6088 20.2116 74.7666 17.5671 74.7666C14.9856 74.8296 12.3718 74.767 9.72729 74.5781C7.14585 74.3892 4.72148 74.2632 2.45483 74.2002H1.32202C1.00725 74.2002 0.69245 74.1366 0.377684 74.0107C-9.74536e-05 63.1179 -0.0944124 52.3192 0.0944812 41.6152C0.283371 30.8484 0.283371 19.987 0.0944812 9.03125L0.188231 8.93652C2.70684 8.2439 5.38312 7.70884 8.21655 7.33105ZM255.9 27.0703C256.656 27.0073 257.286 27.0073 257.79 27.0703C258.356 27.0703 258.639 27.1339 258.639 27.2598V29.5264C258.702 29.7153 258.734 30.03 258.734 30.4707C258.986 30.3448 259.553 30.0926 260.434 29.7148C261.379 29.3371 262.291 28.9905 263.173 28.6758C264.369 28.298 265.723 28.0151 267.234 27.8262C268.745 27.5743 270.162 27.4165 271.484 27.3535C272.806 27.2906 273.908 27.2906 274.79 27.3535C275.733 27.3535 276.206 27.3854 276.207 27.4482C276.207 29.5891 276.175 31.4781 276.112 33.1152V41.0488C276.112 42.1192 276.144 43.1268 276.207 44.0713L275.357 43.7881C275.042 43.6622 274.696 43.5678 274.318 43.5049C274.003 43.379 273.688 43.2528 273.374 43.127C272.618 42.9381 271.831 42.7802 271.012 42.6543C270.259 42.5287 269.849 42.4661 269.785 42.4658C268.085 42.2769 266.51 42.1826 265.062 42.1826C263.677 42.1826 262.449 42.403 261.379 42.8438C260.371 43.2845 259.584 43.9766 259.017 44.9209C258.451 45.8654 258.199 47.2194 258.261 48.9824C258.324 51.1861 258.388 53.264 258.451 55.2158C258.514 57.1677 258.546 59.1512 258.546 61.166V67.2109C258.609 69.2257 258.639 71.3979 258.639 73.7275V74.1055C257.569 74.4203 256.593 74.6089 255.712 74.6719C254.83 74.7348 253.917 74.7348 252.972 74.6719C252.028 74.6719 250.989 74.6411 249.856 74.5781C248.786 74.5152 247.494 74.5459 245.983 74.6719C245.983 66.9274 245.889 59.1829 245.7 51.4385C245.574 43.6938 245.638 35.6649 245.889 27.3535C246.645 27.4165 247.274 27.48 247.778 27.543H250.611C251.115 27.48 251.745 27.4165 252.501 27.3535C252.753 27.3535 253.194 27.3227 253.823 27.2598C254.515 27.1968 255.208 27.1333 255.9 27.0703ZM149.294 26.8818C150.112 26.8189 150.931 26.8189 151.75 26.8818C152.568 26.8818 153.481 26.9126 154.488 26.9756C155.495 27.0385 156.755 27.0078 158.266 26.8818C158.266 34.6263 158.329 42.3708 158.455 50.1152C158.644 57.86 158.613 65.8888 158.361 74.2002C157.605 74.1372 156.975 74.1055 156.471 74.1055C155.968 74.0425 155.496 74.0108 155.055 74.0107C154.615 74.0107 154.142 74.0425 153.638 74.1055C153.135 74.1055 152.505 74.1373 151.75 74.2002C151.498 74.2002 151.057 74.2628 150.427 74.3887C149.798 74.4516 149.167 74.5152 148.538 74.5781C147.908 74.6411 147.341 74.6411 146.838 74.5781C146.334 74.5781 146.083 74.4828 146.083 74.2939C145.957 73.2237 145.893 72.342 145.893 71.6494C145.956 70.957 145.956 70.1702 145.893 69.2891C145.579 69.4779 145.169 69.6984 144.666 69.9502C144.225 70.202 143.847 70.4532 143.532 70.7051C142.21 71.6495 140.73 72.405 139.094 72.9717C137.456 73.5384 135.756 73.854 133.993 73.917C132.293 73.9799 130.624 73.7903 128.987 73.3496C127.35 72.9088 125.871 72.1216 124.549 70.9883C123.919 70.4216 123.415 69.2571 123.037 67.4941C122.722 65.6682 122.502 63.496 122.376 60.9775C122.313 58.4589 122.282 55.7191 122.282 52.7598C122.345 49.7376 122.408 46.7155 122.47 43.6934C122.533 40.6082 122.596 37.6488 122.659 34.8154C122.722 31.982 122.691 29.4943 122.565 27.3535C124.769 27.0387 126.721 26.9126 128.421 26.9756H134.371C134.497 28.4238 134.559 30.0617 134.559 31.8877C134.559 33.7134 134.529 35.6021 134.466 37.5537V43.4102C134.529 45.3619 134.623 47.1878 134.749 48.8877C134.812 49.6431 134.874 50.4932 134.937 51.4375C135 52.3188 135.095 53.2007 135.22 54.082C135.409 54.9635 135.631 55.7508 135.883 56.4434C136.197 57.1359 136.606 57.671 137.11 58.0488C137.173 58.1117 137.236 58.1435 137.299 58.1436C137.362 58.1436 137.425 58.1753 137.488 58.2383C137.992 58.4901 138.716 58.7106 139.66 58.8994C140.667 59.0253 141.643 58.9618 142.588 58.71C143.532 58.3951 144.383 57.8293 145.138 57.0107C145.894 56.1292 146.335 54.8377 146.461 53.1377C146.587 50.9971 146.617 48.8564 146.554 46.7158C146.491 44.575 146.397 42.4655 146.271 40.3877C146.208 38.2469 146.146 36.1374 146.083 34.0596C146.083 31.9818 146.24 29.904 146.554 27.8262V27.4482C147.625 27.1334 148.538 26.9448 149.294 26.8818ZM90.9519 9.50293C91.7704 9.37702 92.6521 9.34624 93.5964 9.40918C94.6039 9.47214 95.6432 9.56645 96.7136 9.69238C97.7839 9.75535 98.8543 9.8179 99.9246 9.88086C100.995 9.94382 102.066 9.91206 103.136 9.78613V24.9922C103.199 25.8736 103.23 26.787 103.23 27.7314C105.182 27.6685 107.229 27.5742 109.37 27.4482C111.574 27.3223 114.281 27.1645 117.492 26.9756C117.933 27.4793 118.185 28.2357 118.248 29.2432C118.311 30.1875 118.311 31.2262 118.248 32.3594C118.185 33.4927 118.091 34.6582 117.965 35.8545C117.902 36.9877 117.932 37.9638 118.058 38.7822H103.42V48.7939C103.42 52.005 103.45 55.0271 103.513 57.8604C104.143 58.7419 105.056 59.4348 106.253 59.9385C107.449 60.4422 108.74 60.8512 110.125 61.166C111.51 61.4179 112.896 61.5757 114.281 61.6387C115.729 61.7016 116.988 61.7016 118.058 61.6387C118.184 62.5201 118.31 63.4961 118.436 64.5664C118.562 65.6368 118.657 66.7387 118.719 67.8721C118.782 69.0054 118.752 70.1391 118.626 71.2725C118.563 72.4057 118.373 73.4443 118.058 74.3887C115.54 74.5146 112.927 74.5146 110.219 74.3887C107.512 74.1998 104.962 73.8225 102.569 73.2559C100.177 72.6892 98.0361 71.8384 96.1472 70.7051C94.3212 69.5717 92.999 68.0291 92.1804 66.0771C91.3619 61.229 90.8894 56.6643 90.7634 52.3828C90.6375 48.0382 90.6057 43.5672 90.6687 38.9707C89.6613 39.0337 88.591 39.0654 87.4578 39.0654H83.8689L84.1521 27.543C85.4112 27.6059 86.576 27.6367 87.6462 27.6367H90.8582C90.8581 26.2517 90.8264 24.7722 90.7634 23.1982C90.7005 21.5612 90.6687 19.9241 90.6687 18.2871V13.5645C90.7317 12.0533 90.826 10.6993 90.9519 9.50293ZM285.29 9.50293C286.108 9.37702 286.99 9.34622 287.934 9.40918C288.942 9.47214 289.98 9.56649 291.051 9.69238C292.121 9.75535 293.192 9.81789 294.262 9.88086C295.333 9.94381 296.403 9.91205 297.473 9.78613V24.9922C297.536 25.8736 297.568 26.787 297.568 27.7314C299.52 27.6685 301.566 27.5742 303.707 27.4482C305.911 27.3223 308.619 27.1645 311.83 26.9756C312.271 27.4793 312.522 28.2357 312.585 29.2432C312.648 30.1875 312.648 31.2262 312.585 32.3594C312.522 33.4927 312.427 34.6582 312.302 35.8545C312.239 36.9877 312.27 37.9638 312.396 38.7822H297.757V48.7939C297.757 52.005 297.788 55.0271 297.851 57.8604C298.481 58.7419 299.394 59.4348 300.591 59.9385C301.787 60.4421 303.078 60.8512 304.463 61.166C305.848 61.4179 307.233 61.5757 308.618 61.6387C310.066 61.7016 311.326 61.7016 312.396 61.6387C312.522 62.5201 312.648 63.4961 312.774 64.5664C312.9 65.6368 312.994 66.7388 313.057 67.8721C313.12 69.0054 313.089 70.1391 312.963 71.2725C312.9 72.4056 312.711 73.4444 312.396 74.3887C309.878 74.5146 307.265 74.5146 304.557 74.3887C301.85 74.1998 299.3 73.8225 296.907 73.2559C294.514 72.6892 292.373 71.8385 290.484 70.7051C288.658 69.5717 287.336 68.029 286.517 66.0771C285.699 61.229 285.226 56.6643 285.1 52.3828C284.974 48.0382 284.944 43.5672 285.007 38.9707C283.999 39.0337 282.928 39.0654 281.795 39.0654H278.206L278.489 27.543C279.748 27.6059 280.914 27.6367 281.984 27.6367H285.195C285.195 26.2516 285.163 24.7722 285.1 23.1982C285.037 21.5612 285.007 19.9241 285.007 18.2871V13.5645C285.07 12.0533 285.164 10.6993 285.29 9.50293ZM13.5056 47.8486C13.2538 48.7931 13.0334 49.8642 12.8445 51.0605C12.6556 52.2568 12.5295 53.4849 12.4666 54.7441C12.4666 55.9403 12.5609 57.1051 12.7498 58.2383C12.9386 59.3715 13.2852 60.3158 13.7888 61.0713L13.9783 61.166C14.8596 61.166 15.7723 61.1978 16.7166 61.2607C17.7239 61.2607 18.6999 61.229 19.6443 61.166C20.6517 61.0401 21.565 60.8197 22.3835 60.5049C23.2651 60.1271 24.0205 59.5603 24.6501 58.8047C25.3427 57.8603 25.6574 56.7273 25.5945 55.4053C25.5945 54.083 25.3741 52.8858 24.9333 51.8154C24.5556 51.0601 23.9895 50.3986 23.2341 49.832C22.4786 49.2024 21.6913 48.7934 20.8728 48.6045C19.6765 48.2897 18.4485 48.1328 17.1892 48.1328C15.9299 48.0698 14.702 47.9746 13.5056 47.8486ZM64.0876 35.0986C62.5766 35.0987 61.3485 35.2555 60.4041 35.5703C59.4597 35.8851 58.7041 36.326 58.1375 36.8926C57.5708 37.4592 57.13 38.1205 56.8152 38.876C56.5634 39.6315 56.3747 40.4189 56.2488 41.2373C56.1228 41.9299 56.0603 42.4342 56.0603 42.749C56.1234 43.0007 56.4382 43.1895 57.0046 43.3154C57.5713 43.3784 58.453 43.4102 59.6492 43.4102C60.9084 43.3472 62.7343 43.3154 65.1267 43.3154C66.7638 43.3154 67.9918 43.3472 68.8103 43.4102C69.6289 43.4731 70.1957 43.5039 70.5105 43.5039C70.8882 43.4409 71.0769 43.3466 71.0769 43.2207V42.1816C71.0768 40.9225 70.7304 39.726 70.0378 38.5928C69.4082 37.4596 68.5266 36.6096 67.3933 36.043C66.8897 35.7282 66.3862 35.5077 65.8826 35.3818C65.3788 35.1929 64.7803 35.0986 64.0876 35.0986ZM223.285 35.0986C221.774 35.0986 220.546 35.2556 219.601 35.5703C218.657 35.8851 217.901 36.3261 217.335 36.8926C216.768 37.4591 216.327 38.1206 216.012 38.876C215.761 39.6315 215.571 40.4189 215.445 41.2373C215.319 41.9299 215.257 42.4342 215.257 42.749C215.32 43.0008 215.634 43.1895 216.201 43.3154C216.768 43.3784 217.649 43.4102 218.845 43.4102C220.105 43.3472 221.931 43.3154 224.323 43.3154C225.96 43.3154 227.188 43.3472 228.007 43.4102C228.825 43.4731 229.392 43.5039 229.707 43.5039C230.085 43.4409 230.273 43.3466 230.273 43.2207V42.1816C230.273 40.9225 229.928 39.726 229.235 38.5928C228.606 37.4595 227.724 36.6096 226.591 36.043C226.087 35.7281 225.583 35.5078 225.079 35.3818C224.575 35.193 223.977 35.0987 223.285 35.0986ZM16.7166 22.3477C15.3316 22.2847 14.1668 22.5052 13.2224 23.0088C13.3483 24.4569 13.2848 26.2202 13.033 28.2979C12.8441 30.3757 13.0337 32.5169 13.6003 34.7207C14.5447 34.8466 15.5525 34.9409 16.6228 35.0039C17.693 35.0668 18.7318 35.0361 19.739 34.9102C20.7465 34.7842 21.6597 34.5003 22.4783 34.0596C23.3597 33.5559 24.0527 32.8321 24.5564 31.8877C24.9971 31.1322 25.3744 30.2505 25.6892 29.2432C26.004 28.2358 25.9096 27.2281 25.406 26.2207C24.9023 25.2133 24.2411 24.4578 23.4226 23.9541C22.667 23.3874 21.7855 22.9774 20.7781 22.7256C19.5188 22.4737 18.1647 22.3477 16.7166 22.3477ZM144.968 5.4209L144.89 5.53027C144.53 6.03883 143.953 6.77573 143.16 7.74121C142.367 8.70692 141.553 9.74039 140.719 10.8408C139.874 11.8792 139.086 12.8759 138.354 13.8311C137.623 14.7862 137.175 15.5334 137.011 16.0723C136.04 16.3657 134.908 16.6541 133.615 16.9385C132.374 17.1502 131.127 17.3318 129.875 17.4814C128.685 17.6205 127.588 17.7433 126.585 17.8506C125.633 17.8853 124.928 17.8781 124.472 17.8281C125.358 16.6551 126.337 15.2743 127.407 13.6865C128.529 12.026 129.651 10.3656 130.773 8.70508C131.947 6.97197 133.11 5.36782 134.263 3.89355C135.407 2.35718 136.463 1.05954 137.432 0L144.968 5.4209ZM160.913 5.4375L160.836 5.54688C160.475 6.05492 159.897 6.79147 159.102 7.75586C158.307 8.72037 157.492 9.75239 156.656 10.8516C155.81 11.8886 155.02 12.8839 154.287 13.8379C153.554 14.7919 153.106 15.5385 152.941 16.0771C151.969 16.3692 150.836 16.656 149.543 16.9385C148.301 17.1484 147.054 17.3278 145.802 17.4756C144.612 17.6129 143.515 17.734 142.511 17.8398C141.559 17.8731 140.855 17.8642 140.399 17.8135C141.287 16.6418 142.267 15.2629 143.34 13.6768C144.464 12.0179 145.589 10.359 146.714 8.7002C147.89 6.96887 149.056 5.36704 150.212 3.89453C151.357 2.35988 152.415 1.06296 153.385 0.00488281L160.913 5.4375Z" fill="#31431B"/>
</svg>
